<svg xmlns="http://www.w3.org/2000/svg" viewBox="0 0 474.29 504.51"><defs><style>.cls-1{font-size:56.52px;font-family:Amador;}.cls-2{fill:#c1272d;}.cls-3,.cls-4,.cls-5{fill:none;}.cls-3,.cls-4{stroke:#000;}.cls-3{stroke-miterlimit:10;}.cls-4,.cls-5{stroke-linecap:round;stroke-linejoin:round;}.cls-4{stroke-width:20px;}.cls-5{stroke:#fff;stroke-width:5px;}</style></defs><title>SSMLogo_wText</title><g id="Layer_2" data-name="Layer 2"><text class="cls-1" transform="matrix(0.1, -1.07, 1, 0.1, 64.75, 233.82)">S</text><text class="cls-1" transform="translate(69.15 197.62) rotate(-74.68) scale(1.07 1)">i</text><text class="cls-1" transform="translate(72.11 185.85) rotate(-68.33) scale(1.07 1)">s</text><text class="cls-1" transform="translate(79.28 168.01) rotate(-61.64) scale(1.07 1)">t</text><text class="cls-1" transform="translate(86.23 154.79) rotate(-55.23) scale(1.07 1)">e</text><text class="cls-1" transform="matrix(0.71, -0.8, 0.75, 0.66, 96.93, 139.27)">r</text><text class="cls-1" transform="translate(109.31 125.21) rotate(-41.81) scale(1.07 1)">s</text><text class="cls-1" transform="matrix(0.85, -0.65, 0.61, 0.79, 124.07, 112.31)"> </text><text class="cls-1" transform="matrix(0.9, -0.58, 0.54, 0.84, 128.98, 108.09)">o</text><text class="cls-1" transform="translate(147.89 96.13) rotate(-26.44) scale(1.07 1)">f</text><text class="cls-1" transform="translate(162.67 88.93) rotate(-22.77) scale(1.07 1)"> </text><text class="cls-1" transform="translate(168.78 86.2) rotate(-19.3) scale(1.07 1)">t</text><text class="cls-1" transform="translate(182.91 81.01) rotate(-13.48) scale(1.07 1)">h</text><text class="cls-1" transform="matrix(1.06, -0.13, 0.12, 0.99, 204.45, 75.88)">e</text><text class="cls-1" transform="matrix(1.07, -0.06, 0.05, 1, 223.64, 73.68)"> </text><text class="cls-1" transform="translate(229.82 72.38) rotate(3.48) scale(1.07 1)">S</text><text class="cls-1" transform="translate(266.41 75.17) rotate(12.13) scale(1.07 1)">c</text><text class="cls-1" transform="matrix(1.02, 0.34, -0.31, 0.95, 284.18, 78.81)">a</text><text class="cls-1" transform="translate(304.34 85.48) rotate(24.71) scale(1.07 1)">r</text><text class="cls-1" transform="translate(321.52 93.51) rotate(29.71) scale(1.07 1)">l</text><text class="cls-1" transform="translate(331.79 99.13) rotate(34.82) scale(1.07 1)">e</text><text class="cls-1" transform="matrix(0.82, 0.7, -0.65, 0.76, 347.37, 110.03)">t</text><text class="cls-1" transform="matrix(0.77, 0.75, -0.7, 0.72, 358.97, 120.11)"> </text><text class="cls-1" transform="matrix(0.61, 0.88, -0.82, 0.57, 364.87, 122.32)">M</text><text class="cls-1" transform="translate(395.04 168.6) rotate(69.12) scale(1.07 1)">o</text><text class="cls-1" transform="matrix(0.23, 1.05, -0.98, 0.22, 402.98, 189.12)">o</text><text class="cls-1" transform="translate(407.89 210.56) rotate(86.09) scale(1.07 1)">n</text></g><g id="Layer_3" data-name="Layer 3"><path class="cls-2" d="M231.85,452.43c-50.4,0-97.24-17.53-131.91-49.35-36.1-33.14-57-79.92-60.91-135.92,55.31,60.47,124.66,93.58,196.66,93.58s142.19-33,199.09-93.38c-5.73,55.06-28.59,101.46-66.58,134.85C331.34,434.59,282.92,452.43,231.85,452.43Z"/><path d="M45.42,281.1c54.51,54.79,121.16,84.64,190.27,84.64S372,336.07,427.82,281.57c-7.87,47.34-29.33,87.36-62.92,116.88a193.87,193.87,0,0,1-62.4,36.66,207.36,207.36,0,0,1-70.65,12.32c-49.14,0-94.79-17.06-128.53-48-32-29.4-51.77-69.92-57.9-118.29m395.46-27.91c-59.45,68.27-132.51,102.55-205.19,102.55-72.46,0-144.53-34.09-202.28-102.55C36,390.39,133.07,457.43,231.85,457.43c100.32,0,202.4-69.16,209-204.24Z"/></g><g id="Layer_1" data-name="Layer 1"><path class="cls-3" d="M108,350.06c8.77-89.3,96.48-115.87,150.24-152.51"/><path class="cls-3" d="M365.24,350.06c-8.77-89.3-96.48-115.87-150.24-152.51"/><path class="cls-3" d="M238.1,108.55c-107.7,91.28,24.43,241.51,127.44,241.51"/><path class="cls-3" d="M238.56,108.55c107.7,91.28-24.93,241.51-127.95,241.51"/><path class="cls-3" d="M215.29,197.55c-101.7-71.41-134.45,86,21.56,144.64"/><path class="cls-3" d="M258,197.55c101.7-71.41,134.45,86-21.56,144.64"/><path class="cls-4" d="M108,350.06c8.77-89.3,96.48-115.87,150.24-152.51"/><path class="cls-4" d="M365.24,350.06c-8.77-89.3-96.48-115.87-150.24-152.51"/><path class="cls-4" d="M238.1,108.55c-107.7,91.28,24.43,241.51,127.44,241.51"/><path class="cls-4" d="M238.56,108.55c107.7,91.28-24.93,241.51-127.95,241.51"/><path class="cls-4" d="M215.29,197.55c-101.7-71.41-134.45,86,21.56,144.64"/><path class="cls-4" d="M258,197.55c101.7-71.41,134.45,86-21.56,144.64"/><path class="cls-5" d="M108,350.06c8.77-89.3,96.48-115.87,150.24-152.51"/><path class="cls-5" d="M365.24,350.06c-8.77-89.3-96.48-115.87-150.24-152.51"/><path class="cls-5" d="M238.1,108.55c-107.7,91.28,24.43,241.51,127.44,241.51"/><path class="cls-5" d="M238.56,108.55c107.7,91.28-24.93,241.51-127.95,241.51"/><path class="cls-5" d="M215.29,197.55c-101.7-71.41-134.45,86,21.56,144.64"/><path class="cls-5" d="M258,197.55c101.7-71.41,134.45,86-21.56,144.64"/></g></svg>